{"title":"Gitarrmongot.2004.x264.AAC.mp4.Zen_Bud","uid":5704437,"size":735710169,"categoryP":"other","categoryS":"other","magnet":"?xt=urn:btih:a9be1a5330a23c7080c2cd4559588db38ab726b7&amp;dn=Gitarrmongot.2004.x264.AAC.mp4.Zen_Bud&amp;tr=udp%3A%2F%2Ftracker.openbittorrent.com%3A80&amp;tr=udp%3A%2F%2Fopen.demonii.com%3A1337&amp;tr=udp%3A%2F%2Ftracker.coppersurfer.tk%3A6969&amp;tr=udp%3A%2F%2Fexodus.desync.com%3A6969","seeders":0,"leechers":1,"uploader":"Zen_Bud","files":1,"time":1279642847,"description":"General\nComplete name                    : Gitarrmongot.2004.mp4\nFormat                           : MPEG-4\nCodec ID                         : mp42\nFile size                        : 702 MiB\nDuration                         : 1h 24mn\nOverall bit rate                 : 1 159 Kbps\nWriting application              : HandBrake svn3442 2010071701\n\nVideo\nID                               : 1\nFormat                           : AVC\nDuration                         : 1h 24mn\nBit rate                         : 1 024 Kbps\nWidth                            : 720 pixels\nHeight                           : 576 pixels\nDisplay aspect ratio             : 4:3\nStream size                      : 620 MiB (88%)\nWriting library                  : x264 core 104\n\n\nAudio\nID                               : 2\nFormat                           : AAC\nDuration                         : 1h 24mn\nBit rate mode                    : Variable\nBit rate                         : 128 Kbps\nChannel(s)                       : 2 channels\nChannel positions                : Front: L R\nSampling rate                    : 48.0 KHz\nStream size                      : 77.4 MiB (11%)\nLanguage                         : Swedish\n\n\nText #1\n\nFormat                           : VobSub\nLanguage                         : Swedish","torrent":{"xt":"urn:btih:a9be1a5330a23c7080c2cd4559588db38ab726b7","amp;dn":"Gitarrmongot.2004.x264.AAC.mp4.Zen_Bud","amp;tr":["udp%3A%2F%2Ftracker.openbittorrent.com%3A80","udp%3A%2F%2Fopen.demonii.com%3A1337","udp%3A%2F%2Ftracker.coppersurfer.tk%3A6969","udp%3A%2F%2Fexodus.desync.com%3A6969"],"infoHash":"a9be1a5330a23c7080c2cd4559588db38ab726b7","infoHashBuffer":{"type":"Buffer","data":[169,190,26,83,48,162,60,112,128,194,205,69,89,88,141,179,138,183,38,183]},"announce":[],"urlList":[]}}